PathFileType	4	(X/Y/Z)	 s08c0101.trc
DataRate	CameraRate	NumFrames	NumMarkers	Units	OrigDataRate	OrigDataStartFrame	OrigNumFrames
200	200	4	50	mm	200	751	2000
Frame#	Time	racr			lacr			c7			jug			rlel			rdr			llel			ldr			s2			lic			ric			lasi			rasi			rpsi			lpsi			rgt			lgt			rth1			rth2			rth3			rth4			rlfc			rmfc			rsh1			rsh2			rsh3			rsh4			rlmal			rmmal			rcal			rtoe			rmt5			lth1			lth2			lth4			lth3			llfc			lmfc			llmal			lmmal			lcal			lmt5			lsh1			lsh2			lsh3			lsh4			ltoe			SBIKE			LBIKE			RBIKE			
		X1	Y1	Z1	X2	Y2	Z2	X3	Y3	Z3	X4	Y4	Z4	X5	Y5	Z5	X6	Y6	Z6	X7	Y7	Z7	X8	Y8	Z8	X9	Y9	Z9	X10	Y10	Z10	X11	Y11	Z11	X12	Y12	Z12	X13	Y13	Z13	X14	Y14	Z14	X15	Y15	Z15	X16	Y16	Z16	X17	Y17	Z17	X18	Y18	Z18	X19	Y19	Z19	X20	Y20	Z20	X21	Y21	Z21	X22	Y22	Z22	X23	Y23	Z23	X24	Y24	Z24	X25	Y25	Z25	X26	Y26	Z26	X27	Y27	Z27	X28	Y28	Z28	X29	Y29	Z29	X30	Y30	Z30	X31	Y31	Z31	X32	Y32	Z32	X33	Y33	Z33	X34	Y34	Z34	X35	Y35	Z35	X36	Y36	Z36	X37	Y37	Z37	X38	Y38	Z38	X39	Y39	Z39	X40	Y40	Z40	X41	Y41	Z41	X42	Y42	Z42	X43	Y43	Z43	X44	Y44	Z44	X45	Y45	Z45	X46	Y46	Z46	X47	Y47	Z47	X48	Y48	Z48	X49	Y49	Z49	X50	Y50	Z50	
751	3.7550	588.350677	1336.539032	-67.573706	589.352526	1353.162634	-383.994521	561.442518	1412.012653	-226.961826	522.494771	1256.947426	-231.461725	595.377725	1093.784365	54.168486	797.638110	892.354139	-30.824692	594.784696	1090.001159	-502.281586	800.948484	910.274479	-415.313919	-1.265541	1210.547586	-213.399244	152.801785	1210.948089	-373.161788	164.121400	1208.821645	-55.325300	182.347703	1171.628954	-333.112216	182.925598	1157.194679	-92.123715	32.808653	1251.202509	-162.497293	30.744095	1254.329552	-255.065033	90.342490	1093.274286	-25.963642	104.598254	1095.030805	-402.287051	218.875020	981.344738	-22.592210	297.694404	940.565702	-27.829619	343.689771	867.160252	-36.395973	320.920116	966.784997	-39.071346	414.238659	778.500499	-53.922706	397.030588	778.062813	-172.059442	305.571053	703.665501	-27.081959	262.685423	627.055205	-50.559291	189.988206	582.359274	-57.143030	287.565485	610.996419	-77.588116	101.130256	508.445044	-65.527213	130.648362	511.353566	-151.943077	26.231813	533.365148	-114.235799	239.843675	332.307386	-105.222674	152.463073	365.969771	-36.048657	191.265782	985.218772	-413.098710	262.401825	934.859070	-409.897515	289.855293	957.513777	-401.462940	299.248770	853.882525	-407.835907	369.485696	746.781730	-390.533383	370.654126	716.824444	-284.804013	321.267327	326.500890	-398.778976	356.551435	358.086349	-326.248513	255.672936	294.389452	-363.883440	470.002467	258.318380	-414.040846	352.969122	616.034474	-414.964430	365.523008	532.521269	-400.974972	336.396656	448.829129	-402.338247	386.466787	533.308902	-366.588223	544.834417	298.702186	-342.850596	-133.263194	947.685295	-223.863236	27.680376	83.878174	-427.404069	20.017223	80.541104	-30.028674	
752	3.7600	586.154205	1336.368097	-64.363518	590.279542	1353.970257	-382.182843	560.821836	1412.629174	-224.283705	521.653705	1257.646129	-229.638799	594.694623	1093.674772	56.314122	797.601868	892.595447	-30.501744	597.681065	1091.888908	-502.895280	801.491119	909.659880	-415.380596	-0.677695	1209.004085	-216.464638	154.737273	1209.197473	-375.600236	162.598109	1209.102781	-57.432176	184.155583	1169.442856	-335.344485	182.781846	1157.986418	-94.214102	32.659127	1250.360330	-165.603016	32.196558	1253.078587	-259.290843	90.991192	1093.930045	-27.862818	105.513251	1091.547438	-404.045005	221.711972	984.718756	-24.711171	301.095081	945.476027	-28.887351	348.649385	873.095195	-36.855127	323.872473	972.152308	-40.012440	420.241321	785.422544	-54.081695	403.237071	784.594748	-172.250787	311.063343	711.793274	-27.412565	267.175156	635.504423	-50.938866	194.007231	591.668404	-57.549328	291.880467	619.100502	-77.898952	104.452461	518.479691	-66.029984	133.995988	521.308873	-152.385280	29.176880	543.169448	-114.611859	244.100782	343.360753	-105.384374	156.729557	377.065594	-35.674978	190.474601	980.213899	-415.097643	260.319238	927.978971	-411.782588	288.316851	949.948989	-403.392956	295.019026	846.066367	-409.631919	361.484810	736.120695	-388.992881	361.995849	708.175384	-287.162729	318.303940	317.624378	-400.314050	353.151319	349.365364	-327.653291	252.681560	286.781458	-365.729741	466.933040	247.487573	-414.069404	347.149672	607.030940	-416.789035	360.579728	523.623744	-402.832287	332.371265	439.765269	-404.229546	381.192015	524.374056	-367.634588	541.844093	287.015737	-342.476383	-133.189950	947.658415	-224.234605	27.713328	83.835497	-427.444868	20.059435	80.564827	-30.066880	
753	3.7650	583.920810	1336.557418	-61.228026	591.361096	1355.179883	-380.200516	560.191021	1413.332277	-221.505272	521.171207	1258.340620	-227.650820	593.913107	1093.496466	58.409283	797.512405	892.847732	-30.180305	600.621340	1094.350475	-503.276296	802.171489	909.121817	-415.123049	-0.044760	1208.018330	-220.089795	156.822469	1207.565131	-377.954734	160.872743	1209.846462	-59.488255	185.750158	1167.658812	-337.395036	182.613647	1159.081948	-96.422520	32.971336	1249.267669	-168.966125	33.096809	1251.909030	-263.498897	91.639014	1095.195164	-29.685510	106.522438	1088.484881	-405.755017	224.024159	988.386491	-26.342058	303.919158	950.916265	-28.832314	353.060742	879.178823	-36.957832	326.678565	978.123266	-40.089002	426.049886	792.757211	-54.158099	408.767503	790.497824	-170.320555	316.276918	720.166625	-27.892354	272.066808	644.188481	-51.224912	198.721463	600.818295	-57.819304	296.300834	627.465943	-78.162981	108.408911	528.276392	-66.548083	137.995755	531.178578	-152.567896	32.873287	552.692656	-114.836838	248.993691	354.262606	-105.463424	161.494681	387.512884	-35.751066	189.668551	975.641051	-416.919339	258.010156	921.612830	-413.629019	286.581692	942.851570	-405.243141	290.518701	838.830599	-411.521589	354.558285	727.733136	-390.836037	353.385960	700.424536	-287.916340	314.639547	309.203305	-401.673805	349.371705	341.240364	-328.996419	249.161586	279.776008	-366.935472	462.859941	236.949178	-414.059984	340.861860	598.517975	-418.753467	355.123290	515.275405	-404.524922	327.785172	431.054959	-406.039537	375.438126	516.382045	-369.489311	538.255672	275.566663	-342.460556	-133.125133	947.674384	-224.681954	27.745399	83.837992	-427.473244	20.093200	80.604322	-30.107527	
754	3.7700	581.688411	1336.889665	-58.363462	592.549600	1356.411307	-377.792513	559.583986	1414.088623	-218.800087	520.809640	1259.068824	-225.750098	593.142662	1093.437934	60.177509	797.510926	893.076217	-29.923838	603.428741	1096.720239	-502.948410	803.062195	908.545948	-414.739669	0.752763	1206.991305	-223.945937	158.938812	1206.194529	-379.988121	159.040761	1211.031215	-61.495277	187.654160	1164.732173	-338.161963	182.361359	1160.737462	-98.612834	32.144589	1248.332256	-172.522089	33.834596	1250.872953	-267.490775	92.271328	1097.102913	-31.355117	107.588068	1085.866126	-407.388426	225.927905	992.369316	-27.539950	306.522219	956.232251	-29.463642	356.918073	885.511950	-36.837121	328.654276	983.834849	-40.431444	431.887960	800.707131	-53.873690	413.786322	795.706712	-166.571135	321.727411	728.682628	-28.276419	277.099237	652.912512	-51.306742	203.150192	610.328455	-57.942405	301.323711	636.112048	-78.190118	112.954005	537.786254	-66.795694	142.594733	540.842457	-152.618571	37.047175	561.846796	-114.959088	254.580656	365.002515	-105.601100	166.983427	397.636170	-35.869160	188.694517	971.584165	-418.731094	255.586820	915.694443	-415.378945	284.671522	936.049831	-406.825224	285.778388	832.095699	-413.421975	347.291509	719.907179	-392.559919	346.137262	691.907497	-291.867019	310.347255	301.359310	-402.711806	345.368268	333.689099	-330.355166	245.119456	273.382497	-367.943126	458.225275	226.857526	-414.087725	333.823997	590.365207	-420.535583	349.026798	507.399478	-406.237195	322.543393	422.862819	-407.525367	369.351098	509.093571	-371.622769	534.046064	264.288072	-342.086716	-133.224662	947.631633	-224.724690	27.759384	83.824418	-427.502873	20.112325	80.608773	-30.126260	
